# xmcd CD database file
#
# Track frame offsets:
#	182
#	16682
#	33550
#	54567
#	78810
#	95882
#	110190
#	138272
#	159542
#	169070
#	183097
#	208030
#	227477
#	248610
#	267425
#	283410
#	298737
#
# Disc length: 4232 seconds
#
# Revision: 2
# Processed by: cddbd v1.5.2PL0 Copyright (c) Steve Scherf et al.
# Submitted via: CDex 2.23
#
DISCID=f1108611
DTITLE=Count Basie - Line up
DYEAR=1966
DGENRE=Jazz
TTITLE0=Li'l darlin
TTITLE1=Swingin shepherd bleus
TTITLE2=I can't stop loving you
TTITLE3=Corner pochet
TTITLE4=Magpie
TTITLE5=I'm beginning to see the light
TTITLE6=Ceaseless Blues
TTITLE7=Blues is Hoss' flat
TTITLE8=Fly me to the moon
TTITLE9=The midnight sun never sets
TTITLE10=Things ain't what they used to be
TTITLE11=Macy
TTITLE12=Boone's blues
TTITLE13=It's oh, so nice
TTITLE14=Hayburner
TTITLE15=Alfie
TTITLE16=Mint julep
EXTD=YEAR: 1966
EXTT0=
EXTT1=
EXTT2=
EXTT3=
EXTT4=
EXTT5=
EXTT6=
EXTT7=
EXTT8=
EXTT9=
EXTT10=
EXTT11=
EXTT12=
EXTT13=
EXTT14=
EXTT15=
EXTT16=
PLAYORDER=
